<svg width="32" height="32" viewBox="0 0 32 32" fill="none" xmlns="http://www.w3.org/2000/svg">
<g clip-path="url(#clip0)">
<path d="M30.6667 10.72H1.33325C0.597412 10.72 0 11.3174 0 12.0532V28C0 30.2053 1.79468 32 4 32H28C30.2053 32 32 30.2053 32 28V12.0532C32 11.3174 31.4026 10.72 30.6667 10.72V10.72Z" fill="#ECEFF1"/>
<path d="M28 4H4C1.79077 4 0 5.79077 0 8V12.0532H32V8C32 5.79077 30.2092 4 28 4Z" fill="#2196F3"/>
<path d="M8 0H6.66675C5.93066 0 5.33325 0.597412 5.33325 1.33325V6.66675C5.33325 7.40259 5.93066 8 6.66675 8H8C8.73608 8 9.33325 7.40259 9.33325 6.66675V1.33325C9.33325 0.597412 8.73608 0 8 0Z" fill="#1976D2"/>
<path d="M25.3333 0H24C23.2639 0 22.6667 0.597412 22.6667 1.33325V6.66675C22.6667 7.40259 23.2639 8 24 8H25.3333C26.0693 8 26.6667 7.40259 26.6667 6.66675V1.33325C26.6667 0.597412 26.0693 0 25.3333 0V0Z" fill="#1976D2"/>
</g>
<defs>
<clipPath id="clip0">
<rect width="32" height="32" fill="white"/>
</clipPath>
</defs>
</svg>
