<svg width="32" height="32" viewBox="0 0 32 32" fill="none" xmlns="http://www.w3.org/2000/svg">
<path d="M26.2857 0H5.71427C2.55991 0.00375001 0.00375001 2.55991 0 5.71427V26.2857C0.00375001 29.4401 2.55991 31.9963 5.71427 32H26.2857C29.4401 31.9963 31.9963 29.4401 32 26.2857V5.71427C31.9963 2.55991 29.4401 0.00375001 26.2857 0ZM21.7143 17.1429H17.1429V21.7143C17.1429 22.3455 16.6312 22.8572 16 22.8572C15.3688 22.8572 14.8571 22.3455 14.8571 21.7143V17.1429H10.2857C9.65452 17.1429 9.14285 16.6312 9.14285 16C9.14285 15.3688 9.65452 14.8571 10.2857 14.8571H14.8572V10.2857C14.8572 9.65452 15.3689 9.14285 16.0001 9.14285C16.6313 9.14285 17.1429 9.65452 17.1429 10.2857V14.8572H21.7143C22.3455 14.8572 22.8572 15.3689 22.8572 16.0001C22.8572 16.6313 22.3455 17.1429 21.7143 17.1429Z" fill="#0D4F83"/>
</svg>
